<?xml version="1.0" encoding="utf-8"?>
<!-- Generator: Adobe Illustrator 17.1.0, SVG Export Plug-In . SVG Version: 6.00 Build 0)  -->
<!DOCTYPE svg PUBLIC "-//W3C//DTD SVG 1.1//EN" "http://www.w3.org/Graphics/SVG/1.1/DTD/svg11.dtd">
<svg version="1.1" id="Layer_1" xmlns="http://www.w3.org/2000/svg" xmlns:xlink="http://www.w3.org/1999/xlink" x="0px" y="0px"
	 viewBox="0 175 960 210" enable-background="new 0 175 960 210" xml:space="preserve">
<path fill="#4E66F8" d="M107.8,179.1c-20.2,0-39.7,6.3-56.3,16.7C34.8,207,22.3,223,14.6,241C7,259.8,4.9,280,9,299.5
	C13.2,319,22.3,337,36.9,351c13.9,13.9,32,23.7,51.5,27.8s39.7,2.1,58.4-5.6s34.1-20.9,45.2-37.6c11.1-16.7,16.7-36.2,16.7-56.3
	c0-27.1-10.4-52.9-29.9-71.7C160,189.6,135,179.1,107.8,179.1L107.8,179.1z M60.5,327.3l21.6-64l42.4,42.4L60.5,327.3z M133.6,296.7
	l-42.4-42.4l64-21.6L133.6,296.7z"/>
<g enable-background="new    ">
	<path d="M303.2,279.2c5.5,2.8,8.4,8.3,8.4,14.4c0,11.5-7.5,20.5-21.4,20.5h-32.4v-67.2h29.7c12.5,0,21.3,8.2,21.3,20.7
		C308.7,271.7,306.5,276.5,303.2,279.2z M275.4,262.2v11.3h10.9c3.4,0,5.1-2.6,5.2-5.3c0.1-3-1.6-6-5.2-6H275.4z M275.4,287.7v11.2
		h13.6c3.4,0,4.9-2.5,5.2-5.2c0.1-2-0.8-4.1-2.4-5.3c-0.9-0.4-1.7-0.7-2.9-0.7H275.4z"/>
	<path d="M335.7,306.1l-3.8,8.4h-18.4v-2.4l30.9-65.6h8.1l30.6,65.6v2.4h-18.2l-3.9-8.4H335.7z M341.4,291.4h13.9l-7-16.3
		L341.4,291.4z"/>
	<path d="M406.8,279.8v34.7h-17.6v-67.6h5.5l35.1,33.2v-32.9h17.6v67.5h-5.2L406.8,279.8z"/>
	<path d="M487.8,288.5c-2,0.3-6,0.3-8.4,0.3v25.7h-17.6v-67.3h17.6v26.4c2.8,0,7.4,0.2,9.8-1.1c3.1-1.5,4.1-5.6,6.1-13.7
		c2-8.2,8.6-14.8,24.3-11.5v11.8c-4.2-0.3-7.1,0.7-8.2,4.8c-2.2,8.1-4.5,13.8-8.3,17.9c6.4,10,12.7,20.1,19.2,30.1v2.6h-19.9
		L487.8,288.5z"/>
	<path d="M573.4,262.5H549v9.6h22.5v15.4H549v11h25.3v16.1h-42.9v-67.3h42V262.5z"/>
	<path d="M581,262.6v-15.4h50v15.4h-16.5v52h-17v-52H581z"/>
	<path d="M639,260.9v-13.8h26V301h10.8v13.5h-38.1V301h10.5v-40.1H639z"/>
	<path d="M684.8,260.9v-13.8h26V301h10.8v13.5h-38.1V301H694v-40.1H684.8z"/>
	<path d="M770.6,246.6l-14.3,24.3c0.2-0.1,0.5-0.1,1-0.1c13.8-0.8,22.8,7.7,22.8,21.7c0,15.8-11.1,23.1-25.9,23.1
		c-14.6,0-25.8-7.3-25.8-23.1c0-4.9,2-10.7,4.4-14.8l18.7-31.2H770.6z M762.7,292.6c0-5.7-2.8-8.5-8.5-8.5c-5.7,0-8.6,2.8-8.6,8.5
		c0,5.4,2.8,8.3,8.6,8.3S762.7,298,762.7,292.6z"/>
	<path d="M788.4,307.5c0-5.4,4.2-8.9,9.5-8.9c5.4,0,9.5,3.5,9.5,8.9s-4.1,8.8-9.5,8.8C792.7,316.2,788.4,312.9,788.4,307.5z"/>
	<path d="M876.5,311.9v2.5h-18.7l-11.5-21.1H837v21.1h-17.6v-67.3c10,0,19.7-0.1,29.6,0c16.3,0,24.2,12,24.2,23.9
		c-0.1,7.7-3.4,15.1-10,19.6L876.5,311.9z M849,279c4.9,0,7.3-4.2,7.3-8.5c0-4.2-2.3-8.2-7.3-8.2h-12.2V279H849z"/>
	<path d="M885.7,292.3v-45.1h17.6v44.7c0,5.6,4.9,8,9.9,8c4.7,0,9.7-2.4,9.7-8v-44.7h17.4v45.1c0,15.1-13.1,23.1-27.2,23.1
		C898.9,315.4,885.7,307.4,885.7,292.3z"/>
</g>
</svg>
